HIERARCHY
ROOT Hips
{
	OFFSET 0.00000 0.00000 0.00000
	CHANNELS 6 Xposition Yposition Zposition Zrotation Yrotation Xrotation 
	JOINT LHipJoint
	{
		OFFSET 0 0 0
		CHANNELS 3 Zrotation Yrotation Xrotation
		JOINT LeftUpLeg
		{
			OFFSET 1.77779 -1.88989 0.48267
			CHANNELS 3 Zrotation Yrotation Xrotation
			JOINT LeftLeg
			{
				OFFSET 2.53442 -6.96327 0.00000
				CHANNELS 3 Zrotation Yrotation Xrotation
				JOINT LeftFoot
				{
					OFFSET 2.71068 -7.44755 0.00000
					CHANNELS 3 Zrotation Yrotation Xrotation
					JOINT LeftToeBase
					{
						OFFSET 0.17992 -0.49431 2.22524
						CHANNELS 3 Zrotation Yrotation Xrotation
						End Site
						{
							OFFSET 0.00000 -0.00000 1.14687
						}
					}
				}
			}
		}
	}
	JOINT RHipJoint
	{
		OFFSET 0 0 0
		CHANNELS 3 Zrotation Yrotation Xrotation
		JOINT RightUpLeg
		{
			OFFSET -1.58469 -1.88989 0.48267
			CHANNELS 3 Zrotation Yrotation Xrotation
			JOINT RightLeg
			{
				OFFSET -2.60386 -7.15404 0.00000
				CHANNELS 3 Zrotation Yrotation Xrotation
				JOINT RightFoot
				{
					OFFSET -2.73334 -7.50979 0.00000
					CHANNELS 3 Zrotation Yrotation Xrotation
					JOINT RightToeBase
					{
						OFFSET -0.25618 -0.70384 2.21822
						CHANNELS 3 Zrotation Yrotation Xrotation
						End Site
						{
							OFFSET -0.00000 -0.00000 1.16381
						}
					}
				}
			}
		}
	}
	JOINT LowerBack
	{
		OFFSET 0 0 0
		CHANNELS 3 Zrotation Yrotation Xrotation
		JOINT Spine
		{
			OFFSET 0.03410 2.01612 -0.22230
			CHANNELS 3 Zrotation Yrotation Xrotation
			JOINT Spine1
			{
				OFFSET 0.03465 2.03012 0.00937
				CHANNELS 3 Zrotation Yrotation Xrotation
				JOINT Neck
				{
					OFFSET 0 0 0
					CHANNELS 3 Zrotation Yrotation Xrotation
					JOINT Neck1
					{
						OFFSET -0.00219 1.70459 0.20857
						CHANNELS 3 Zrotation Yrotation Xrotation
						JOINT Head
						{
							OFFSET 0.02518 1.72339 -0.22179
							CHANNELS 3 Zrotation Yrotation Xrotation
							End Site
							{
								OFFSET 0.00282 1.74122 -0.09823
							}
						}
					}
				}
				JOINT LeftShoulder
				{
					OFFSET 0 0 0
					CHANNELS 3 Zrotation Yrotation Xrotation
					JOINT LeftArm
					{
						OFFSET 3.36358 1.00547 -0.37661
						CHANNELS 3 Zrotation Yrotation Xrotation
						JOINT LeftForeArm
						{
							OFFSET 5.06507 -0.00000 0.00000
							CHANNELS 3 Zrotation Yrotation Xrotation
							JOINT LeftHand
							{
								OFFSET 3.60196 -0.00000 0.00000
								CHANNELS 3 Zrotation Yrotation Xrotation
								JOINT LeftFingerBase
								{
									OFFSET 0 0 0
									CHANNELS 3 Zrotation Yrotation Xrotation
									JOINT LeftHandIndex1
									{
										OFFSET 0.45035 -0.00000 0.00000
										CHANNELS 3 Zrotation Yrotation Xrotation
										End Site
										{
											OFFSET 0.36308 -0.00000 0.00000
										}
									}
								}
								JOINT LThumb
								{
									OFFSET 0 0 0
									CHANNELS 3 Zrotation Yrotation Xrotation
									End Site
									{
										OFFSET 0.36862 -0.00000 0.36862
									}
								}
							}
						}
					}
				}
				JOINT RightShoulder
				{
					OFFSET 0 0 0
					CHANNELS 3 Zrotation Yrotation Xrotation
					JOINT RightArm
					{
						OFFSET -3.50159 0.80383 -0.71526
						CHANNELS 3 Zrotation Yrotation Xrotation
						JOINT RightForeArm
						{
							OFFSET -5.36394 -0.00000 0.00000
							CHANNELS 3 Zrotation Yrotation Xrotation
							JOINT RightHand
							{
								OFFSET -3.58035 -0.00000 0.00000
								CHANNELS 3 Zrotation Yrotation Xrotation
								JOINT RightFingerBase
								{
									OFFSET 0 0 0
									CHANNELS 3 Zrotation Yrotation Xrotation
									JOINT RightHandIndex1
									{
										OFFSET -0.66375 -0.00000 0.00000
										CHANNELS 3 Zrotation Yrotation Xrotation
										End Site
										{
											OFFSET -0.53513 -0.00000 0.00000
										}
									}
								}
								JOINT RThumb
								{
									OFFSET 0 0 0
									CHANNELS 3 Zrotation Yrotation Xrotation
									End Site
									{
										OFFSET -0.54330 -0.00000 0.54330
									}
								}
							}
						}
					}
				}
			}
		}
	}
}
MOTION
Frames: 15
Frame Time: .0083333
0.7783 17.8165 -29.0209 0 0 0 0 0 0 -21 0 0 0 0 0 0 0 0 0 0 0 0 0 0 21 0 0 0 0 0 0 0 0 0 0 0 0 0 0 0 0 0 0 0 0 0 0 -16 0 0 21 0 0 11 0 0 0 -8 0 0 0 0 0 0 0 0 0 0 0 0 0 0 0 0 0 0 0 0 8 0 0 0 0 0 0 0 0 0 0 0 0 0 0 0 0 0
0.7783 17.8165 -29.0209 -4.6683 -4.9120 -1.4942 0.0000 0.0000 0.0000 -14.8007 -9.1618 -20.9027 1.0647 6.5602 18.4187 0.0902 -3.9580 -5.6270 0.7455 -5.5154 -15.3847 0.0000 0.0000 0.0000 31.1371 3.0152 10.5229 -3.0295 -10.7427 31.4170 -0.7115 2.3429 -15.3112 -0.3861 3.9901 -11.0488 3.6331 2.3318 9.5640 1.3729 3.5589 0.5583 -1.0828 1.6951 -4.6451 -1.3699 -3.7236 -15.4213 0.2618 -5.0095 26.5619 -0.3772 -2.3766 11.1982 0.0000 -0.0000 0.0000 -88.7979 5.4590 15.7814 11.3092 -18.7606 -1.8742 -0.0000 0.0000 -4.1691 27.4628 20.0419 10.0996 -7.1250 0.0000 -0.0000 -0.9961 52.3260 -0.1796 0.0000 -0.0000 0.0000 87.4111 8.3344 21.7651 -17.9483 28.0909 -4.5248 0.0000 0.0000 0.1426 -23.9573 20.8377 -8.9819 7.1250 -0.0000 -0.0000 2.9341 -7.3927 2.5356
0.7924 17.8409 -28.8172 -4.0432 -4.8776 -1.6964 0.0000 0.0000 0.0000 -15.5946 -9.0838 -20.3982 1.1114 6.6978 18.8231 0.0458 -5.1792 -4.9504 0.5235 -4.6367 -12.8752 0.0000 0.0000 0.0000 30.2209 2.8073 9.9214 -3.4272 -11.3564 33.4915 -0.5746 2.6349 -13.6606 -0.4510 4.3082 -11.9455 3.3542 2.5434 9.6100 0.8309 3.7663 1.1427 -1.5000 1.8169 -4.0317 -0.6828 -3.8410 -17.9824 0.3745 -5.4160 27.3992 -0.5825 -2.4417 12.0198 0.0000 0.0000 0.0000 -88.0833 4.0111 16.0133 10.9181 -18.1626 -1.7503 -0.0000 0.0000 -4.1971 27.4178 19.3801 9.7670 -7.1250 0.0000 -0.0000 -0.9004 51.5949 -0.1462 0.0000 0.0000 0.0000 88.1503 9.4405 20.4309 -17.6868 27.7542 -4.4024 0.0000 0.0000 0.2199 -23.6089 21.4000 -9.0611 7.1250 -0.0000 -0.0000 3.2117 -6.8541 2.8100
0.8052 17.8595 -28.6192 -3.7201 -4.8086 -1.8320 0.0000 0.0000 0.0000 -16.0897 -8.8641 -19.7168 1.1140 6.7052 18.8449 -0.0206 -5.3024 -3.0199 0.0606 -1.5890 -4.3712 0.0000 0.0000 0.0000 29.6109 2.6902 8.9550 -3.9379 -12.0773 36.0059 -0.4318 2.9286 -11.7525 -0.4171 4.1456 -11.4867 2.9868 2.3832 9.6704 0.8823 3.5344 0.6657 -1.2308 1.6937 -4.6001 -1.1240 -3.6831 -16.1791 0.4865 -5.0951 27.1786 -0.3742 -2.3492 11.5857 0.0000 -0.0000 0.0000 -88.3908 5.2329 15.1887 10.7849 -17.9578 -1.7090 -0.0000 0.0000 -4.1597 27.5941 19.2896 9.7958 -7.1250 0.0000 -0.0000 -0.7022 51.5281 -0.1129 0.0000 -0.0000 0.0000 88.1919 8.2077 20.0018 -17.3696 27.3424 -4.2557 0.0000 0.0000 0.2972 -22.5212 22.6598 -9.0761 7.1250 -0.0000 -0.0000 4.0225 -5.7099 3.6114
0.8214 17.8627 -28.4217 -3.3070 -4.6276 -2.0737 0.0000 0.0000 0.0000 -16.7926 -8.4672 -19.2185 1.1380 6.7746 19.0493 -0.0574 -5.6745 -1.9400 0.0619 -1.6048 -4.4147 0.0000 0.0000 0.0000 28.8320 2.3898 8.0314 -4.4565 -12.7443 38.4188 -0.2758 3.0377 -9.3391 -0.3165 3.6162 -9.9994 2.3876 2.0635 9.7289 1.0982 3.0728 0.1291 -0.6276 1.4673 -5.2566 -1.8538 -3.4261 -13.7287 0.5030 -4.5563 26.7367 -0.1122 -2.2027 10.9445 -0.0000 -0.0000 0.0000 -89.0889 6.7896 13.9838 10.7284 -17.8707 -1.6916 -0.0000 0.0000 -3.9815 28.5675 18.4883 9.7962 -7.1250 0.0000 -0.0000 0.4370 50.8220 0.0627 -0.0000 -0.0000 0.0000 87.9062 6.5826 20.7360 -17.1076 26.9994 -4.1361 0.0000 0.0000 1.2173 -23.4451 21.9829 -9.2208 7.1250 -0.0000 -0.0000 3.3744 -6.2647 2.9913
0.8392 17.8610 -28.2267 -3.0587 -4.2490 -2.2952 0.0000 0.0000 0.0000 -17.3528 -8.1030 -18.8688 1.1868 6.9135 19.4592 -0.0725 -6.0817 -1.8004 0.1379 -2.3930 -6.5931 0.0000 0.0000 0.0000 28.1798 1.8716 6.9155 -5.0014 -13.3853 40.8286 -0.1290 2.7787 -6.3918 -0.2379 3.1390 -8.6661 2.3821 2.1273 9.8280 0.8189 3.1292 0.7334 -0.9116 1.5047 -4.6618 -1.3062 -3.6713 -15.9901 0.4069 -5.0061 27.2329 -0.3563 -2.3397 11.5709 -0.0000 0.0000 0.0000 -88.6508 5.2910 14.0078 10.3770 -17.3271 -1.5854 -0.0000 0.0000 -3.5007 29.6574 17.5566 9.7461 -7.1250 0.0000 -0.0000 1.6821 49.9780 0.2065 -0.0000 0.0000 0.0000 88.4442 7.7168 19.2324 -16.5994 26.3266 -3.9080 0.0000 0.0000 2.2640 -23.7923 22.3858 -9.5316 7.1250 -0.0000 -0.0000 3.1990 -5.7776 2.8653
0.8624 17.8687 -28.0300 -3.0554 -4.0984 -2.4601 0.0000 0.0000 0.0000 -17.6236 -7.6466 -18.4556 1.2385 7.0569 19.8841 -0.0721 -6.4447 -2.2824 0.2211 -3.0267 -8.3532 0.0000 0.0000 0.0000 27.6785 1.5043 5.7373 -5.5574 -13.9853 43.1786 -0.0197 2.3068 -2.7738 -0.1085 2.1239 -5.8482 2.5875 2.1799 9.8213 0.6858 3.1982 1.3801 -1.1557 1.5498 -3.9618 -0.6881 -3.7679 -18.3584 0.1013 -5.2331 27.6659 -0.6683 -2.3907 12.1910 0.0000 0.0000 0.0000 -88.3748 3.7252 13.5605 10.0777 -16.8610 -1.4974 -0.0000 0.0000 -2.5088 28.2783 18.6427 9.7575 -7.1250 0.0000 -0.0000 0.1169 50.9409 0.0171 0.0000 0.0000 0.0000 88.7792 8.9514 17.9457 -16.1564 25.7323 -3.7136 0.0000 0.0000 2.8081 -23.8587 23.4012 -9.9628 7.1250 -0.0000 -0.0000 3.2698 -4.6916 2.9964
0.8857 17.8832 -27.8294 -3.3482 -4.2242 -2.5695 0.0000 0.0000 0.0000 -17.5250 -7.0573 -18.0675 1.3056 7.2385 20.4239 -0.0724 -6.9970 -2.9058 0.2585 -3.2712 -9.0347 0.0000 0.0000 0.0000 27.5696 1.4760 4.6417 -6.1048 -14.5291 45.4008 0.0095 1.7371 0.8043 -0.0649 1.6436 -4.5218 2.6067 1.8318 9.8977 1.2652 2.8031 0.1764 -0.5444 1.3302 -5.3069 -1.8837 -3.3826 -13.6499 0.2576 -4.4218 26.8433 -0.1770 -2.1747 10.9615 0.0000 0.0000 0.0000 -89.4510 6.7816 11.7074 10.2431 -17.1190 -1.5457 -0.0000 0.0000 -1.3949 26.1481 19.7258 9.4085 -7.1250 0.0000 -0.0000 -2.2680 51.7396 -0.3766 0.0000 0.0000 0.0000 88.1712 5.8249 18.8597 -16.2388 25.8434 -3.7495 0.0000 0.0000 2.6435 -23.5042 23.4315 -9.8116 7.1250 -0.0000 -0.0000 3.4927 -4.7245 3.1992
0.9081 17.9033 -27.6336 -3.3282 -4.3590 -2.6006 0.0000 0.0000 0.0000 -17.7525 -6.4875 -17.7636 1.3705 7.4089 20.9325 -0.0926 -7.7214 -3.0762 0.1168 -2.2032 -6.0676 0.0000 0.0000 0.0000 27.1254 1.5577 3.3083 -6.6719 -15.0493 47.6223 -0.0302 1.4628 4.1649 -0.0480 1.4145 -3.8902 2.9794 2.0061 9.7454 0.9960 3.0363 0.8284 -1.0434 1.4520 -4.4982 -1.4554 -3.5846 -16.0547 0.2795 -4.8026 27.3070 -0.3507 -2.2790 11.6112 -0.0000 -0.0000 0.0000 -88.9224 5.3054 11.9538 10.0723 -16.8527 -1.4959 -0.0000 0.0000 -1.0314 26.2689 20.4894 9.8017 -7.1250 0.0000 -0.0000 -2.3291 52.5868 -0.4351 -0.0000 -0.0000 0.0000 88.7449 6.8344 17.7624 -16.3350 25.9728 -3.7915 0.0000 0.0000 2.4682 -22.5892 22.7973 -9.1575 7.1250 -0.0000 -0.0000 3.9939 -5.5537 3.5975
0.9270 17.9242 -27.4455 -2.9548 -4.4891 -2.7307 0.0000 0.0000 0.0000 -18.3810 -5.8792 -17.3068 1.4176 7.5299 21.2950 -0.1264 -8.5094 -3.0030 0.0383 -1.2626 -3.4715 0.0000 0.0000 0.0000 26.3678 1.7532 1.9789 -7.2775 -15.5612 49.9162 -0.1446 1.3038 7.7838 -0.0116 0.6968 -1.9150 2.8600 2.1732 9.6708 0.6925 3.2127 1.3902 -1.2956 1.5552 -3.8525 -0.9417 -3.7235 -18.0696 0.1800 -5.1164 27.7116 -0.5721 -2.3574 12.1607 -0.0000 -0.0000 0.0000 -88.4305 4.1242 12.6083 9.9212 -16.6162 -1.4523 -0.0000 0.0000 -1.5525 27.9150 20.6497 10.5831 -7.1250 0.0000 -0.0000 -0.6632 53.0763 -0.1318 -0.0000 -0.0000 0.0000 89.2592 7.7558 16.7977 -16.2648 25.8784 -3.7608 0.0000 0.0000 2.3764 -22.1361 22.5137 -8.8534 7.1250 -0.0000 -0.0000 4.2489 -5.9283 3.7980
0.9414 17.9369 -27.2631 -2.3366 -4.5391 -2.9365 0.0000 0.0000 0.0000 -19.2832 -5.3677 -16.5750 1.4126 7.5172 21.2569 -0.1478 -8.9524 -2.9417 0.0369 -1.2396 -3.4084 0.0000 0.0000 0.0000 25.3885 1.9516 0.6104 -7.9436 -16.0776 52.3592 -0.3385 1.1576 11.4720 -0.0361 -1.2266 3.3726 1.7966 1.8513 10.1004 1.0280 2.7298 0.1474 -0.3358 1.3096 -5.4784 -1.8225 -3.3151 -13.7784 0.0642 -4.2900 27.0741 -0.2446 -2.1313 11.0658 0.0000 0.0000 0.0000 -89.3543 7.1354 11.5404 10.0585 -16.8310 -1.4918 -0.0000 0.0000 -1.8328 28.1706 19.8322 10.2977 -7.1250 0.0000 -0.0000 -0.2222 52.2301 -0.0396 0.0000 0.0000 0.0000 88.6894 4.8592 17.7643 -16.1124 25.6728 -3.6945 0.0000 0.0000 2.3812 -21.9543 23.1796 -9.0157 7.1250 -0.0000 -0.0000 4.4279 -5.2619 4.0154
0.9521 17.9491 -27.0836 -1.8849 -4.5390 -3.0344 0.0000 0.0000 0.0000 -19.9874 -5.0114 -15.7696 1.3749 7.4202 20.9664 -0.1468 -8.9308 -2.9428 0.0102 -0.6536 -1.7961 0.0000 0.0000 0.0000 24.6139 2.1271 -0.9546 -8.6545 -16.5802 54.8876 -0.5384 0.7309 14.1453 -0.2676 -3.3277 9.1924 1.4556 1.9635 10.2430 0.7927 2.8236 0.4092 -0.4032 1.3644 -5.2862 -1.5926 -3.4309 -14.9898 0.0246 -4.4899 27.4198 -0.3547 -2.1930 11.4342 -0.0000 -0.0000 0.0000 -88.9432 6.4543 12.1704 9.9396 -16.6450 -1.4576 -0.0000 0.0000 -2.1720 28.0199 18.9664 9.8127 -7.1250 0.0000 -0.0000 -0.2053 51.2509 -0.0316 -0.0000 -0.0000 0.0000 89.0239 5.2531 16.9795 -15.8388 25.3016 -3.5768 0.0000 0.0000 2.8297 -22.3518 23.7898 -9.4176 7.1250 -0.0000 -0.0000 4.2442 -4.5548 3.9047
0.9619 17.9776 -26.9026 -1.2027 -4.6966 -3.1600 0.0000 0.0000 0.0000 -20.9349 -4.6441 -14.8300 1.3229 7.2843 20.5603 -0.1190 -8.5285 -3.2354 0.0057 0.4854 1.3338 0.0000 0.0000 0.0000 23.5746 2.3502 -2.4914 -9.3958 -17.0558 57.4490 -0.6056 0.1076 14.7456 -0.4004 -4.0627 11.2532 0.7746 2.0083 10.1282 0.6193 2.7893 0.6575 -0.1872 1.3649 -4.9856 -1.5304 -3.3978 -15.4803 -0.0702 -4.4247 27.4607 -0.4014 -2.1658 11.5437 0.0000 0.0000 0.0000 -88.7887 6.0600 12.7740 9.9467 -16.6562 -1.4596 -0.0000 0.0000 -2.8071 28.3658 19.1096 10.0240 -7.1250 0.0000 -0.0000 0.1198 51.4715 0.0191 0.0000 0.0000 0.0000 89.1468 5.3518 16.7862 -15.6931 25.1027 -3.5147 0.0000 0.0000 3.1118 -22.4759 24.1409 -9.6037 7.1250 -0.0000 -0.0000 4.2052 -4.1654 3.8994
0.9706 18.0026 -26.7209 -0.6171 -4.6795 -3.2574 0.0000 0.0000 0.0000 -21.8198 -4.1881 -13.9930 1.2718 7.1476 20.1534 -0.1172 -8.6496 -3.4249 0.0084 0.5935 1.6308 0.0000 0.0000 0.0000 22.7203 2.4122 -4.0395 -10.1355 -17.4854 59.9404 -0.5039 -0.3590 13.2909 -0.1987 -2.8702 7.9177 0.2726 1.9743 10.0231 0.4103 2.6719 1.0346 -0.0941 1.3181 -4.5461 -1.4294 -3.3819 -16.5680 -0.0752 -4.4137 27.5054 -0.4419 -2.1436 11.7775 0.0000 -0.0000 0.0000 -88.5136 5.1653 13.1655 9.8900 -16.5673 -1.4434 -0.0000 0.0000 -3.0238 28.5882 20.0623 10.5887 -7.1250 0.0000 -0.0000 0.1628 52.5626 0.0303 0.0000 -0.0000 0.0000 89.3582 5.8813 16.7157 -15.5729 24.9381 -3.4639 0.0000 0.0000 2.9429 -22.2321 24.3175 -9.5544 7.1250 -0.0000 -0.0000 4.3741 -4.0245 4.0685
0.9832 18.0186 -26.5431 -0.1758 -4.2606 -3.1625 0.0000 0.0000 0.0000 -22.5494 -4.1553 -13.3022 1.2236 7.0158 19.7623 -0.1473 -9.1351 -3.1843 0.0060 0.5000 1.3738 0.0000 0.0000 0.0000 21.9988 2.1515 -5.9033 -10.8562 -17.8640 62.3137 -0.3630 -1.0060 11.0728 -0.0644 -1.6378 4.5058 0.3683 2.0079 9.4783 -0.2294 2.6915 2.0490 -0.7668 1.3323 -3.1525 -0.3617 -3.5678 -19.7236 -0.1465 -4.9789 27.7970 -0.8096 -2.2647 12.5025 0.0000 0.0000 0.0000 -87.2891 2.5763 14.2214 9.5993 -16.1104 -1.3616 -0.0000 0.0000 -3.0678 28.2547 19.4511 10.1464 -7.1250 0.0000 -0.0000 -0.0594 51.8269 -0.0100 0.0000 0.0000 0.0000 90.3384 7.9187 15.8323 -15.4971 24.8341 -3.4320 0.0000 0.0000 2.8627 -21.7313 23.9435 -9.1885 7.1250 -0.0000 -0.0000 4.6431 -4.5030 4.2786
